<svg id="Capa_1" data-name="Capa 1" xmlns="http://www.w3.org/2000/svg" width="37.5266" height="22.4524" viewBox="0 0 37.5266 22.4524"><path d="M15.0666,7.4788v.01a3.7428,3.7428,0,0,1-3.75,3.74h-3.74v3.74a3.745,3.745,0,0,1-.01-7.49Z"/><path d="M15.0673,14.9736h0a3.75,3.75,0,0,1-3.75,3.75h-7.49v3.74h0a3.74,3.74,0,0,1-3.74-3.74h0a3.75,3.75,0,0,1,3.75-3.75Z"/><path d="M37.5266,16.8488a5.6078,5.6078,0,0,1-5.61,5.61h-9.34a7.5028,7.5028,0,0,1-7.51-7.49v-7.49a3.7492,3.7492,0,0,0-3.75-3.74v3.74a3.7385,3.7385,0,0,1-3.74-3.74v-.05a3.7044,3.7044,0,0,1,3.7-3.7,7.5454,7.5454,0,0,1,7.53,7.54v7.45a3.7428,3.7428,0,0,0,3.75,3.74h9.36a1.875,1.875,0,0,0,0-3.75h-3.75a5.615,5.615,0,1,1,0-11.23h9.35a3.7386,3.7386,0,0,1-3.73,3.74h-5.61a1.875,1.875,0,1,0,0,3.75h3.74A5.6164,5.6164,0,0,1,37.5266,16.8488Z"/></svg>