<svg xmlns="http://www.w3.org/2000/svg">
    <symbol id="logo" viewBox="0 0 104.74 22.46">
        <title>Asgard</title>
        <path d="M89.8012,3.7424v18.71h7.49a7.48,7.48,0,0,0,7.48-7.48v-3.75a7.48,7.48,0,0,0-7.48-7.48Zm3.75,14.97V7.4924h3.74a3.74,3.74,0,0,1,3.74,3.74v3.739a3.7409,3.7409,0,0,1-3.7409,3.741Z"/><path d="M46.7606,18.7124h3.74v-3.74h-3.74a3.74,3.74,0,0,1,3.74-3.74h3.74v11.22h-7.49a7.48,7.48,0,0,1-7.48-7.48V11.1969a7.4545,7.4545,0,0,1,7.4545-7.4545h7.5155a3.75,3.75,0,0,1-3.75,3.75H46.7677A3.7471,3.7471,0,0,0,43.0206,11.24v3.7329A3.74,3.74,0,0,0,46.7606,18.7124Z"/><path d="M56.1125,11.1984v11.254h0a3.74,3.74,0,0,0,3.74-3.74v-3.74h7.49v7.48h3.74V3.7424h-7.514A7.456,7.456,0,0,0,56.1125,11.1984Zm11.23.034h-7.49a3.75,3.75,0,0,1,3.75-3.75h3.74Z"/><path d="M83.9794,14.9724a3.9367,3.9367,0,0,0,3.9493-3.8561,7.2725,7.2725,0,0,0-7.2694-7.3739h-7.7v18.71h0a3.75,3.75,0,0,0,3.75-3.75v-2.15l5.9,5.9h5.31l-7.49-7.48Zm-3.54-7.49a3.7556,3.7556,0,0,1,3.75,3.75h-7.48v-3.75Z"/><path d="M14.9481,7.4826v.01a3.7428,3.7428,0,0,1-3.75,3.74h-3.74v3.74a3.745,3.745,0,0,1-.01-7.49Z"/><path d="M14.9488,14.9774h0a3.75,3.75,0,0,1-3.75,3.75h-7.49v3.74h0a3.74,3.74,0,0,1-3.74-3.74h0a3.75,3.75,0,0,1,3.75-3.75Z"/><path d="M37.4081,16.8526a5.6078,5.6078,0,0,1-5.61,5.61h-9.34a7.5028,7.5028,0,0,1-7.51-7.49v-7.49a3.7492,3.7492,0,0,0-3.75-3.74v3.74a3.7385,3.7385,0,0,1-3.74-3.74v-.05a3.7044,3.7044,0,0,1,3.7-3.7,7.5454,7.5454,0,0,1,7.53,7.54v7.45a3.7428,3.7428,0,0,0,3.75,3.74h9.36a1.875,1.875,0,0,0,0-3.75h-3.75a5.615,5.615,0,1,1,0-11.23h9.35a3.7386,3.7386,0,0,1-3.73,3.74h-5.61a1.875,1.875,0,1,0,0,3.75h3.74A5.6164,5.6164,0,0,1,37.4081,16.8526Z"/>
    </symbol>

    <symbol id="at" viewBox="0 0 416 416">
        <title>E-mail</title>
        <path d="M208,0C93.15,0,0,93.11,0,208S93.12,416,208,416s208-93.12,208-208S322.84,0,208,0ZM332.81,203.26c-2.85,32.63-16.78,49.7-28,58.26s-24.69,12.34-36.33,10.26a41.63,41.63,0,0,1-27-17.52,60.84,60.84,0,0,1-43.72,17.9,51.65,51.65,0,0,1-38.55-16.83c-11.39-12.42-17-30.36-15.33-49.23,3.05-35,30.92-57.39,56.87-61.48,27.21-4.29,52.24,6.54,62.91,19.46l3.84,4.66-6.34,50.38c-1.19,14.34,3.29,23.48,12.29,25.1,2.39.42,8.11-.13,14.38-4.93,6.72-5.15,15.14-16,17.1-38.47,2.32-26.55-4.35-49.19-19.28-65.49-15.5-16.9-39.1-25.84-68.24-25.84-54,0-101.81,44.43-106.57,99-2.29,26.2,5.66,50.68,22.39,68.93,16.36,17.84,39.36,27.72,64.65,27.72,19,0,30.61-2.05,49.49-8.78l13.22-4.69,9.39,26.37-13.19,4.7c-21.82,7.77-36.68,10.4-58.88,10.4-33.28,0-63.57-13.06-85.3-36.77-22.09-24.11-32.62-56.17-29.65-90.29,2.91-33.33,18.46-64.63,43.77-88.12s57.57-36.49,90.7-36.49c37.2,0,67.94,12.08,88.88,34.93C326.36,138.31,335.79,169.15,332.81,203.26Z"/><path d="M205.1,172.26c-14.83,2.33-31.55,15.84-33.34,36.26-1,11.06,2,21.22,8.08,27.87a23.63,23.63,0,0,0,17.91,7.75c19.7,0,33.8-14.79,36.8-38.59l1.75-13.89h.09l1.65-13.11a49.63,49.63,0,0,0-32.94-6.3Z"/>
    </symbol>

    <symbol id="fb" viewBox="0 0 22.46 22.46">
        <title>Facebook</title>
        <path d="M22.46,11.2982A11.23,11.23,0,1,0,9.4753,22.3918V14.5444H6.6239V11.2982H9.4753V8.8241c0-2.8145,1.6766-4.3692,4.2417-4.3692a17.2657,17.2657,0,0,1,2.5139.2194V7.4379H14.8148a1.6231,1.6231,0,0,0-1.83,1.7537v2.1066h3.1146l-.4979,3.2462H12.9847v7.8474A11.2328,11.2328,0,0,0,22.46,11.2982Z"/>
    </symbol>

    <symbol id="gh" viewBox="0 0 32 32">
        <title>Github</title>
        <path clip-rule="evenodd" d="M16.003,0C7.17,0,0.008,7.162,0.008,15.997  c0,7.067,4.582,13.063,10.94,15.179c0.8,0.146,1.052-0.328,1.052-0.752c0-0.38,0.008-1.442,0-2.777  c-4.449,0.967-5.371-2.107-5.371-2.107c-0.727-1.848-1.775-2.34-1.775-2.34c-1.452-0.992,0.109-0.973,0.109-0.973  c1.605,0.113,2.451,1.649,2.451,1.649c1.427,2.443,3.743,1.737,4.654,1.329c0.146-1.034,0.56-1.739,1.017-2.139  c-3.552-0.404-7.286-1.776-7.286-7.906c0-1.747,0.623-3.174,1.646-4.292C7.28,10.464,6.73,8.837,7.602,6.634  c0,0,1.343-0.43,4.398,1.641c1.276-0.355,2.645-0.532,4.005-0.538c1.359,0.006,2.727,0.183,4.005,0.538  c3.055-2.07,4.396-1.641,4.396-1.641c0.872,2.203,0.323,3.83,0.159,4.234c1.023,1.118,1.644,2.545,1.644,4.292  c0,6.146-3.74,7.498-7.304,7.893C19.479,23.548,20,24.508,20,26c0,2,0,3.902,0,4.428c0,0.428,0.258,0.901,1.07,0.746  C27.422,29.055,32,23.062,32,15.997C32,7.162,24.838,0,16.003,0z"/>
    </symbol>

    <symbol id="ig" viewBox="0 0 22.46 22.46" style="fill-rule:evenodd;">
        <title>Instagram</title>
        <path d="M11.23,0A11.23,11.23,0,1,1,0,11.23,11.2353,11.2353,0,0,1,11.23,0Zm0,4.2113c-1.9062,0-2.1452.008-2.8938.0422A5.1528,5.1528,0,0,0,6.6324,4.58,3.59,3.59,0,0,0,4.58,6.6325a5.1539,5.1539,0,0,0-.3263,1.7037c-.0341.7486-.0422.9876-.0422,2.8938s.0081,2.1452.0422,2.8938A5.1539,5.1539,0,0,0,4.58,15.8275,3.59,3.59,0,0,0,6.6324,17.88a5.1528,5.1528,0,0,0,1.7038.3262c.7486.0342.9876.0423,2.8938.0423s2.1452-.0081,2.8938-.0423a5.1516,5.1516,0,0,0,1.7037-.3262A3.5893,3.5893,0,0,0,17.88,15.8275a5.1516,5.1516,0,0,0,.3262-1.7037c.0342-.7486.0423-.9876.0423-2.8938s-.0081-2.1452-.0423-2.8938A5.1516,5.1516,0,0,0,17.88,6.6325,3.5893,3.5893,0,0,0,15.8275,4.58a5.1516,5.1516,0,0,0-1.7037-.3262C13.3752,4.2193,13.1362,4.2113,11.23,4.2113Zm0,1.2646c1.8741,0,2.0961.0071,2.8362.0409a3.8852,3.8852,0,0,1,1.3032.2417,2.3237,2.3237,0,0,1,1.3321,1.3321,3.8826,3.8826,0,0,1,.2417,1.3032c.0338.74.0409.9621.0409,2.8362s-.0071,2.0961-.0409,2.8362a3.8826,3.8826,0,0,1-.2417,1.3032,2.3237,2.3237,0,0,1-1.3321,1.3321,3.8826,3.8826,0,0,1-1.3032.2417c-.74.0338-.962.0409-2.8362.0409s-2.0961-.0071-2.8362-.0409a3.8826,3.8826,0,0,1-1.3032-.2417,2.3237,2.3237,0,0,1-1.3321-1.3321,3.8826,3.8826,0,0,1-.2417-1.3032c-.0338-.74-.0409-.9621-.0409-2.8362s.0071-2.0961.0409-2.8362a3.8826,3.8826,0,0,1,.2417-1.3032A2.3237,2.3237,0,0,1,7.0906,5.7585a3.8852,3.8852,0,0,1,1.3032-.2417C9.1339,5.483,9.3559,5.4759,11.23,5.4759Zm0,2.15A3.6042,3.6042,0,1,0,14.8342,11.23,3.6041,3.6041,0,0,0,11.23,7.6258Zm0,5.9438a2.34,2.34,0,1,1,2.34-2.34A2.34,2.34,0,0,1,11.23,13.57Zm4.5889-6.0862a.8423.8423,0,1,1-.8423-.8423A.8422.8422,0,0,1,15.8189,7.4834Z"/>
    </symbol>

    <symbol id="wp" viewBox="0 0 22.4356 22.46">
        <title>Whats App</title>
        <path class="cls-1" d="M11.23,0A11.23,11.23,0,1,1,0,11.23,11.2353,11.2353,0,0,1,11.23,0Zm5.331,5.9152A7.1211,7.1211,0,0,0,5.3541,14.504l-1.01,3.6886,3.7747-.99a7.1166,7.1166,0,0,0,3.4027.8664h.0029A7.1208,7.1208,0,0,0,16.561,5.9152ZM11.5242,16.867h-.0024A5.9107,5.9107,0,0,1,8.51,16.0423l-.2162-.1283-2.24.5875.5979-2.1833-.1407-.2238a5.9185,5.9185,0,1,1,5.0135,2.7726Zm3.2463-4.431c-.1779-.0891-1.0527-.5193-1.2158-.5787s-.2816-.0891-.4.089-.46.5787-.5634.6974-.2076.1336-.3855.0445a4.8574,4.8574,0,0,1-1.4307-.8828,5.3629,5.3629,0,0,1-.99-1.2321c-.1037-.178-.0111-.2743.078-.363.08-.08.1779-.2077.2669-.3116a1.2151,1.2151,0,0,0,.1779-.2967.3274.3274,0,0,0-.0148-.3116c-.0445-.089-.4-.9645-.5486-1.3206-.1443-.3468-.291-.3-.4-.3053-.1036-.0052-.2223-.0063-.3409-.0063a.6536.6536,0,0,0-.4745.2226,1.9941,1.9941,0,0,0-.6227,1.4837,3.46,3.46,0,0,0,.7265,1.84A7.9308,7.9308,0,0,0,11.6719,13.89a10.248,10.248,0,0,0,1.0143.3746,2.439,2.439,0,0,0,1.1206.0705,1.8327,1.8327,0,0,0,1.2009-.8457,1.4879,1.4879,0,0,0,.1038-.8458C15.067,12.57,14.9484,12.525,14.7705,12.436Z"/>
    </symbol>
</svg>