<svg id="ig" xmlns="http://www.w3.org/2000/svg" width="22.46" height="22.46" viewBox="0 0 22.46 22.46"><defs><style>.cls-1{fill-rule:evenodd;}</style></defs><path class="cls-1" d="M11.23,0A11.23,11.23,0,1,1,0,11.23,11.2353,11.2353,0,0,1,11.23,0Zm0,4.2113c-1.9062,0-2.1452.008-2.8938.0422A5.1528,5.1528,0,0,0,6.6324,4.58,3.59,3.59,0,0,0,4.58,6.6325a5.1539,5.1539,0,0,0-.3263,1.7037c-.0341.7486-.0422.9876-.0422,2.8938s.0081,2.1452.0422,2.8938A5.1539,5.1539,0,0,0,4.58,15.8275,3.59,3.59,0,0,0,6.6324,17.88a5.1528,5.1528,0,0,0,1.7038.3262c.7486.0342.9876.0423,2.8938.0423s2.1452-.0081,2.8938-.0423a5.1516,5.1516,0,0,0,1.7037-.3262A3.5893,3.5893,0,0,0,17.88,15.8275a5.1516,5.1516,0,0,0,.3262-1.7037c.0342-.7486.0423-.9876.0423-2.8938s-.0081-2.1452-.0423-2.8938A5.1516,5.1516,0,0,0,17.88,6.6325,3.5893,3.5893,0,0,0,15.8275,4.58a5.1516,5.1516,0,0,0-1.7037-.3262C13.3752,4.2193,13.1362,4.2113,11.23,4.2113Zm0,1.2646c1.8741,0,2.0961.0071,2.8362.0409a3.8852,3.8852,0,0,1,1.3032.2417,2.3237,2.3237,0,0,1,1.3321,1.3321,3.8826,3.8826,0,0,1,.2417,1.3032c.0338.74.0409.9621.0409,2.8362s-.0071,2.0961-.0409,2.8362a3.8826,3.8826,0,0,1-.2417,1.3032,2.3237,2.3237,0,0,1-1.3321,1.3321,3.8826,3.8826,0,0,1-1.3032.2417c-.74.0338-.962.0409-2.8362.0409s-2.0961-.0071-2.8362-.0409a3.8826,3.8826,0,0,1-1.3032-.2417,2.3237,2.3237,0,0,1-1.3321-1.3321,3.8826,3.8826,0,0,1-.2417-1.3032c-.0338-.74-.0409-.9621-.0409-2.8362s.0071-2.0961.0409-2.8362a3.8826,3.8826,0,0,1,.2417-1.3032A2.3237,2.3237,0,0,1,7.0906,5.7585a3.8852,3.8852,0,0,1,1.3032-.2417C9.1339,5.483,9.3559,5.4759,11.23,5.4759Zm0,2.15A3.6042,3.6042,0,1,0,14.8342,11.23,3.6041,3.6041,0,0,0,11.23,7.6258Zm0,5.9438a2.34,2.34,0,1,1,2.34-2.34A2.34,2.34,0,0,1,11.23,13.57Zm4.5889-6.0862a.8423.8423,0,1,1-.8423-.8423A.8422.8422,0,0,1,15.8189,7.4834Z"/></svg>