<svg id="Logo" data-name="Logo" xmlns="http://www.w3.org/2000/svg" width="104.74" height="22.46" viewBox="0 0 104.74 22.46"><path d="M89.8012,3.7424v18.71h7.49a7.48,7.48,0,0,0,7.48-7.48v-3.75a7.48,7.48,0,0,0-7.48-7.48Zm3.75,14.97V7.4924h3.74a3.74,3.74,0,0,1,3.74,3.74v3.739a3.7409,3.7409,0,0,1-3.7409,3.741Z"/><path d="M46.7606,18.7124h3.74v-3.74h-3.74a3.74,3.74,0,0,1,3.74-3.74h3.74v11.22h-7.49a7.48,7.48,0,0,1-7.48-7.48V11.1969a7.4545,7.4545,0,0,1,7.4545-7.4545h7.5155a3.75,3.75,0,0,1-3.75,3.75H46.7677A3.7471,3.7471,0,0,0,43.0206,11.24v3.7329A3.74,3.74,0,0,0,46.7606,18.7124Z"/><path d="M56.1125,11.1984v11.254h0a3.74,3.74,0,0,0,3.74-3.74v-3.74h7.49v7.48h3.74V3.7424h-7.514A7.456,7.456,0,0,0,56.1125,11.1984Zm11.23.034h-7.49a3.75,3.75,0,0,1,3.75-3.75h3.74Z"/><path d="M83.9794,14.9724a3.9367,3.9367,0,0,0,3.9493-3.8561,7.2725,7.2725,0,0,0-7.2694-7.3739h-7.7v18.71h0a3.75,3.75,0,0,0,3.75-3.75v-2.15l5.9,5.9h5.31l-7.49-7.48Zm-3.54-7.49a3.7556,3.7556,0,0,1,3.75,3.75h-7.48v-3.75Z"/><path d="M14.9481,7.4826v.01a3.7428,3.7428,0,0,1-3.75,3.74h-3.74v3.74a3.745,3.745,0,0,1-.01-7.49Z"/><path d="M14.9488,14.9774h0a3.75,3.75,0,0,1-3.75,3.75h-7.49v3.74h0a3.74,3.74,0,0,1-3.74-3.74h0a3.75,3.75,0,0,1,3.75-3.75Z"/><path d="M37.4081,16.8526a5.6078,5.6078,0,0,1-5.61,5.61h-9.34a7.5028,7.5028,0,0,1-7.51-7.49v-7.49a3.7492,3.7492,0,0,0-3.75-3.74v3.74a3.7385,3.7385,0,0,1-3.74-3.74v-.05a3.7044,3.7044,0,0,1,3.7-3.7,7.5454,7.5454,0,0,1,7.53,7.54v7.45a3.7428,3.7428,0,0,0,3.75,3.74h9.36a1.875,1.875,0,0,0,0-3.75h-3.75a5.615,5.615,0,1,1,0-11.23h9.35a3.7386,3.7386,0,0,1-3.73,3.74h-5.61a1.875,1.875,0,1,0,0,3.75h3.74A5.6164,5.6164,0,0,1,37.4081,16.8526Z"/></svg>