<svg id="Capa_1" data-name="Capa 1" xmlns="http://www.w3.org/2000/svg" width="22.4356" height="22.46" viewBox="0 0 22.4356 22.46"><defs><style>.cls-1{fill-rule:evenodd;}</style></defs><path class="cls-1" d="M11.23,0A11.23,11.23,0,1,1,0,11.23,11.2353,11.2353,0,0,1,11.23,0Zm5.331,5.9152A7.1211,7.1211,0,0,0,5.3541,14.504l-1.01,3.6886,3.7747-.99a7.1166,7.1166,0,0,0,3.4027.8664h.0029A7.1208,7.1208,0,0,0,16.561,5.9152ZM11.5242,16.867h-.0024A5.9107,5.9107,0,0,1,8.51,16.0423l-.2162-.1283-2.24.5875.5979-2.1833-.1407-.2238a5.9185,5.9185,0,1,1,5.0135,2.7726Zm3.2463-4.431c-.1779-.0891-1.0527-.5193-1.2158-.5787s-.2816-.0891-.4.089-.46.5787-.5634.6974-.2076.1336-.3855.0445a4.8574,4.8574,0,0,1-1.4307-.8828,5.3629,5.3629,0,0,1-.99-1.2321c-.1037-.178-.0111-.2743.078-.363.08-.08.1779-.2077.2669-.3116a1.2151,1.2151,0,0,0,.1779-.2967.3274.3274,0,0,0-.0148-.3116c-.0445-.089-.4-.9645-.5486-1.3206-.1443-.3468-.291-.3-.4-.3053-.1036-.0052-.2223-.0063-.3409-.0063a.6536.6536,0,0,0-.4745.2226,1.9941,1.9941,0,0,0-.6227,1.4837,3.46,3.46,0,0,0,.7265,1.84A7.9308,7.9308,0,0,0,11.6719,13.89a10.248,10.248,0,0,0,1.0143.3746,2.439,2.439,0,0,0,1.1206.0705,1.8327,1.8327,0,0,0,1.2009-.8457,1.4879,1.4879,0,0,0,.1038-.8458C15.067,12.57,14.9484,12.525,14.7705,12.436Z"/></svg>